<svg xmlns="http://www.w3.org/2000/svg" xmlns:xlink="http://www.w3.org/1999/xlink" viewBox="0 0 154.3 52.45"><defs><style>.cls-1{fill:url(#Degradado_sin_nombre_19);}.cls-2{fill:url(#Degradado_sin_nombre_19-2);}.cls-3{fill:url(#Degradado_sin_nombre_19-3);}.cls-4{fill:url(#Degradado_sin_nombre_19-4);}.cls-5{fill:url(#Degradado_sin_nombre_19-5);}.cls-6{fill:url(#Degradado_sin_nombre_19-6);}.cls-7{fill:url(#Degradado_sin_nombre_19-7);}.cls-8{fill:url(#Degradado_sin_nombre_19-8);}</style><linearGradient id="Degradado_sin_nombre_19" x1="20.23" y1="32.4" x2="20.23" gradientUnits="userSpaceOnUse"><stop offset="0" stop-color="#52225b"/><stop offset="1" stop-color="#e6332a"/></linearGradient><linearGradient id="Degradado_sin_nombre_19-2" x1="49.37" y1="32.75" x2="49.37" y2="9.9" xlink:href="#Degradado_sin_nombre_19"/><linearGradient id="Degradado_sin_nombre_19-3" x1="62.75" y1="30.85" x2="62.75" y2="4.8" xlink:href="#Degradado_sin_nombre_19"/><linearGradient id="Degradado_sin_nombre_19-4" x1="72.42" y1="32.95" x2="72.42" y2="0.75" xlink:href="#Degradado_sin_nombre_19"/><linearGradient id="Degradado_sin_nombre_19-5" x1="87.17" y1="52.45" x2="87.17" y2="9.8" xlink:href="#Degradado_sin_nombre_19"/><linearGradient id="Degradado_sin_nombre_19-6" x1="103.02" y1="32.55" x2="103.02" y2="10.9" xlink:href="#Degradado_sin_nombre_19"/><linearGradient id="Degradado_sin_nombre_19-7" x1="118.87" y1="33" x2="118.87" y2="9.6" xlink:href="#Degradado_sin_nombre_19"/><linearGradient id="Degradado_sin_nombre_19-8" x1="141.1" y1="32.45" x2="141.1" y2="12.1" xlink:href="#Degradado_sin_nombre_19"/></defs><title>moitgramlogo</title><g id="Capa_2" data-name="Capa 2"><g id="Capa_1-2" data-name="Capa 1"><path class="cls-1" d="M40.45,29.7a2,2,0,0,1-1,2A5.46,5.46,0,0,1,37,32.2a3.22,3.22,0,0,1-2.43-1A7.57,7.57,0,0,1,33,27.88a34.37,34.37,0,0,1-.83-5.95Q31.9,18.26,31.9,13a.23.23,0,0,0-.15-.25,8.22,8.22,0,0,0-.35,1.08c-.2.68-.42,1.54-.67,2.57s-.53,2.19-.83,3.48-.57,2.53-.8,3.75-.43,2.35-.6,3.42a16.86,16.86,0,0,0-.25,2.5.91.91,0,0,0,.17.6.55.55,0,0,1,.18.3.55.55,0,0,1-.27.45,3.41,3.41,0,0,1-.66.35,5.06,5.06,0,0,1-.69.23,3.4,3.4,0,0,1-.48.07,4.47,4.47,0,0,1-1-.15,5.6,5.6,0,0,1-1.25-.47A6.68,6.68,0,0,1,23,30.1a3.2,3.2,0,0,1-.87-1.25,8.11,8.11,0,0,1-.32-1.75c-.09-.8-.15-1.68-.18-2.65s-.06-2-.07-3.05,0-2,0-2.95c0-1.1,0-2.07-.05-2.9s-.13-1.25-.3-1.25-.17.16-.3.47-.27.68-.42,1.08-.29.79-.4,1.17a8.47,8.47,0,0,0-.23.83A54,54,0,0,0,18.45,25a49.36,49.36,0,0,0-.35,5.57,5.48,5.48,0,0,0,0,.7.6.6,0,0,0,.07.27.49.49,0,0,0,.1.13.69.69,0,0,1,.1.3,3.59,3.59,0,0,1-1.3.35,13.85,13.85,0,0,1-1.7.1c-.07,0-.27,0-.63-.07a7.41,7.41,0,0,1-1.1-.28,4.77,4.77,0,0,1-1-.5.87.87,0,0,1-.48-.75c0-.27,0-.78,0-1.55s0-1.67.06-2.73,0-2.19,0-3.44,0-2.51.06-3.78,0-2.49.05-3.67,0-2.21,0-3.08c0-.27,0-.67,0-1.22s-.06-1.19-.13-1.9a19.52,19.52,0,0,0-.33-2.2,11.26,11.26,0,0,0-.59-2.05,4.8,4.8,0,0,0-.95-1.53A1.91,1.91,0,0,0,9,3.05a3.94,3.94,0,0,0-2.9,1.28,10.21,10.21,0,0,0-2,3.1,18.87,18.87,0,0,0-1.2,3.82,17.65,17.65,0,0,0-.4,3.45c0,.3,0,.77.08,1.4A8.19,8.19,0,0,0,2.83,18a5,5,0,0,0,.84,1.65,1.88,1.88,0,0,0,1.53.72l.6-.05.65-.05a4,4,0,0,1,.47.05,4.38,4.38,0,0,1,.68.15,2.08,2.08,0,0,1,.63.32.79.79,0,0,1,.27.63,1,1,0,0,1-.3.73,2.14,2.14,0,0,1-.72.42,4,4,0,0,1-.81.2l-.52.05a4.83,4.83,0,0,1-3.2-1A6.86,6.86,0,0,1,1.1,19.4a10.68,10.68,0,0,1-.87-2.92A18.6,18.6,0,0,1,0,13.85,20.16,20.16,0,0,1,.52,9.6,16.13,16.13,0,0,1,2.27,5.08a11.94,11.94,0,0,1,3.18-3.6A7.69,7.69,0,0,1,10.25,0a3,3,0,0,1,1.58.43,5.63,5.63,0,0,1,1.32,1.09,7.8,7.8,0,0,1,1,1.48,7.1,7.1,0,0,1,.63,1.5,18.23,18.23,0,0,1,.83,3.83c.18,1.51.31,3.1.39,4.75s.14,3.3.15,5,0,3.2.08,4.6c.17-.83.34-1.62.52-2.35l.58-2.25c.2-.77.41-1.58.63-2.45l.72-2.95c.27-1.2.57-2.48.93-3.85s.7-2.6,1.07-3.7c.07-.3.32-.48.75-.55a6.58,6.58,0,0,1,.85-.1,2.62,2.62,0,0,1,1,.28,6.69,6.69,0,0,1,1.19.67,4.68,4.68,0,0,1,1,.93,1.61,1.61,0,0,1,.43,1V15.9c0,.63,0,1.42,0,2.35s0,1.83,0,2.68.06,1.57.11,2.17.1.9.17.9.44-.59.72-1.77.61-2.66,1-4.43l1.2-5.72c.43-2.06.9-4,1.4-5.73a27.48,27.48,0,0,1,1.6-4.42C32.77.74,33.35.15,34,.15a1.81,1.81,0,0,1,1.2.65,10.36,10.36,0,0,1,1.2,1.47,10.06,10.06,0,0,1,.9,1.66,3.75,3.75,0,0,1,.35,1.12,5.27,5.27,0,0,1-.25,1,19.66,19.66,0,0,0-.52,2.72c-.19,1.27-.36,3-.53,5.13s-.25,4.87-.25,8.17a19.15,19.15,0,0,0,.18,2.4,18.69,18.69,0,0,0,.52,2.68,8,8,0,0,0,.92,2.17,1.66,1.66,0,0,0,1.38.9,1.42,1.42,0,0,0,.7-.17,1.86,1.86,0,0,0,.6-.73A.47.47,0,0,1,40.45,29.7Z"/><path class="cls-2" d="M57.25,17.08a.74.74,0,0,1,.7-.34c.17,0,.28.1.35.29a1.57,1.57,0,0,1,.1.5,6.36,6.36,0,0,1-.68,2.77,12.44,12.44,0,0,1-1.32,2.12,7.07,7.07,0,0,1-.88,1c-.31.3-.64.58-1,.85,0,.56-.06,1-.08,1.17a2.85,2.85,0,0,1-.07.52,10.79,10.79,0,0,1-1.63,4.15A7.42,7.42,0,0,1,51,32a3.85,3.85,0,0,1-2.37.77,5.84,5.84,0,0,1-1-.1q-.57-.1-1.17-.27c-.4-.12-.78-.25-1.15-.4a6,6,0,0,1-.95-.48,7.23,7.23,0,0,1-2.05-1.64,7.6,7.6,0,0,1-1.23-2,9.51,9.51,0,0,1-.57-2.2,16.39,16.39,0,0,1-.15-2.17,18.21,18.21,0,0,1,.37-3.64,31.59,31.59,0,0,1,.93-3.54,20.15,20.15,0,0,1,1.25-3,11.15,11.15,0,0,1,1.35-2.09,3.6,3.6,0,0,1,1.45-1,4.58,4.58,0,0,1,1.45-.27,3.51,3.51,0,0,1,1.6.4,9.06,9.06,0,0,1,1.55,1,13.28,13.28,0,0,1,1.47,1.37c.49.51.95,1,1.38,1.52A3.85,3.85,0,0,1,53.9,16c.17.82.3,1.64.4,2.47q.11.7.15,1.5c0,.53,0,1.08,0,1.64a5.48,5.48,0,0,0,1.2-1.27A8.9,8.9,0,0,0,56.42,19a8.73,8.73,0,0,0,.45-1.12A3.85,3.85,0,0,1,57.25,17.08Zm-5.9,8.37a4.39,4.39,0,0,1-1.65.6,10,10,0,0,1-1.75.2,8.49,8.49,0,0,1-2.08-.2,5.18,5.18,0,0,1-1.57-.8l0,1.05a4.72,4.72,0,0,0,.15,1.15,3.73,3.73,0,0,0,.47,1.1,2.6,2.6,0,0,0,.93.83,3.2,3.2,0,0,0,1.5.32,3.75,3.75,0,0,0,1.87-.43,3.65,3.65,0,0,0,1.25-1.07,4.49,4.49,0,0,0,.7-1.4A4.77,4.77,0,0,0,51.35,25.45Zm.22-5c0-.47,0-1-.1-1.65s-.13-1.29-.25-2a9.21,9.21,0,0,0-.5-1.88,4.71,4.71,0,0,0-.82-1.43A1.59,1.59,0,0,0,48.65,13a2.22,2.22,0,0,0-1.45.6A6,6,0,0,0,46,15.1a8.88,8.88,0,0,0-.88,2.15,9.22,9.22,0,0,0-.32,2.35,4.41,4.41,0,0,0,.8,2.92,3.47,3.47,0,0,0,2.75.93A5.38,5.38,0,0,0,50.67,23c.62-.3.93-.53.93-.7v-.95Q51.6,21.15,51.57,20.45Z"/><path class="cls-3" d="M63.6,8.2a.66.66,0,0,1-.35.57,2.27,2.27,0,0,1-.78.33,6.17,6.17,0,0,1-.82.15l-.5.05a4.1,4.1,0,0,1-2.08-.6A5.85,5.85,0,0,1,57.2,6.8l-.3-.4a.8.8,0,0,1-.2-.35c0-.17.12-.32.37-.45s.54-.27.85-.4a6.77,6.77,0,0,1,.9-.3,3,3,0,0,1,.58-.1,4.3,4.3,0,0,1,2,.5A3.6,3.6,0,0,1,63,7.15l.37.53A1.13,1.13,0,0,1,63.6,8.2Zm5.1,15.15a14.48,14.48,0,0,1-.55,2.5A9.55,9.55,0,0,1,67,28.27a6.33,6.33,0,0,1-1.82,1.86,4.81,4.81,0,0,1-2.7.72A4.64,4.64,0,0,1,60,30a4.5,4.5,0,0,1-1.78-2.35,9.18,9.18,0,0,1-.47-2.8c0-.27,0-.67,0-1.2s0-1.18,0-1.95V16.2c0-.27,0-.55,0-.85a3.87,3.87,0,0,0-.12-.85,1.91,1.91,0,0,0-.18-.45,1,1,0,0,1-.12-.35.36.36,0,0,1,.25-.32,1.69,1.69,0,0,1,.55-.18,5.93,5.93,0,0,1,.85,0l.7,0a5.33,5.33,0,0,1,1.15.17,3.16,3.16,0,0,1,1.07.48,1,1,0,0,1,.48.92c0,.1,0,.28-.18.55a5.14,5.14,0,0,0-.42,1.4c0,.27-.07.51-.1.73s-.07.45-.1.72-.07.59-.1,1-.07.87-.1,1.47v3c0,.53,0,1.08.05,1.63a8.45,8.45,0,0,0,.22,1.5,2.52,2.52,0,0,0,.58,1.1,1.39,1.39,0,0,0,1,.42,2,2,0,0,0,1.5-.55,8.93,8.93,0,0,0,.85-.95,5.48,5.48,0,0,0,.85-1.87c.2-.75.38-1.53.55-2.33l.1-.5a.83.83,0,0,1,.9-.75q.75,0,.75,1.05v.25Z"/><path class="cls-4" d="M68.85,22.3c0-1.7.08-3.43.15-5.2s.13-3.4.2-4.9c0-.27-.27-.45-.8-.55s-1.13-.2-1.8-.3a8.15,8.15,0,0,1-1.8-.47A1.13,1.13,0,0,1,64,9.8c0-.43.43-.68,1.3-.75S67.45,9,69.15,9q.19,0,.27-.6a14.26,14.26,0,0,0,.1-1.52c0-.62,0-1.28,0-2s.05-1.36.08-2a10.58,10.58,0,0,1,.17-1.53q.14-.6.33-.6a6.52,6.52,0,0,1,.9.1c.43.07.88.16,1.35.28a5.79,5.79,0,0,1,1.22.42c.35.17.53.35.53.55L73.6,8.6c0,.2.17.34.52.42a6.57,6.57,0,0,0,1.35.16l1.75,0A9.75,9.75,0,0,1,79,9.35a3.81,3.81,0,0,1,1.35.48,1.06,1.06,0,0,1,.53,1,1.12,1.12,0,0,1-.1.33c-.07.14-.15.22-.25.22a.51.51,0,0,1-.28-.15,1.67,1.67,0,0,0-.92-.15l-1.1,0c-.6,0-1.23.08-1.9.15s-1.28.14-1.83.23-.85.19-.92.32A7.63,7.63,0,0,0,73.42,13q-.08,1.06-.15,2.82c0,1.17-.09,2.51-.12,4s-.05,3.1-.05,4.77a16,16,0,0,0,.1,1.85,11.59,11.59,0,0,0,.3,1.63A3.74,3.74,0,0,0,74,29.25a1,1,0,0,0,.78.45,1.67,1.67,0,0,0,1.2-.55,5.36,5.36,0,0,0,1-1.5,15.18,15.18,0,0,0,.8-2.15c.23-.8.43-1.62.6-2.45A3.47,3.47,0,0,1,78.75,22a.65.65,0,0,1,.6-.33,1,1,0,0,1,.62.23c.19.14.28.49.28,1a2.79,2.79,0,0,1,0,.65A25,25,0,0,1,79.62,26a17.42,17.42,0,0,1-1.15,3.11A10.88,10.88,0,0,1,76.7,31.8,3.22,3.22,0,0,1,74.25,33a3.75,3.75,0,0,1-2.35-.77A6,6,0,0,1,70.22,30a12.43,12.43,0,0,1-1-3.25,22.2,22.2,0,0,1-.35-4Z"/><path class="cls-5" d="M95.45,32.65a.71.71,0,0,1-.45.7,2.18,2.18,0,0,1-.85.2l-1-.1c-.17,0-.25.1-.25.3l-.05.6c0,.9.05,2,.05,3.4v4c0,1.33,0,2.64-.13,3.93a15.72,15.72,0,0,1-.57,3.45,6.27,6.27,0,0,1-1.28,2.44,2.88,2.88,0,0,1-2.27.93c-.84,0-1.71,0-2.63-.12a8.2,8.2,0,0,1-2.5-.63,4.59,4.59,0,0,1-1.85-1.47A4.34,4.34,0,0,1,81,47.6a15.21,15.21,0,0,1,.38-3.37,17.93,17.93,0,0,1,1.08-3.35,20.27,20.27,0,0,1,1.68-3.11,17.53,17.53,0,0,1,2.14-2.62c.4-.4.85-.81,1.34-1.22s.91-.76,1.28-1v0q.09-1.05.15-2.1c0-.7,0-1.42,0-2.15q-.26.45-.6,1.23a11.8,11.8,0,0,1-.83,1.47,6.08,6.08,0,0,1-1.08,1.22,2,2,0,0,1-1.36.53,1.54,1.54,0,0,1-.7-.15,2,2,0,0,0-.86-.15A4.57,4.57,0,0,1,81.29,32a4.23,4.23,0,0,1-1.46-1.8,9.39,9.39,0,0,1-.73-2.72A27,27,0,0,1,78.9,24a45.18,45.18,0,0,1,.27-4.85,22,22,0,0,1,1-4.58A9.67,9.67,0,0,1,82,11.13,3.79,3.79,0,0,1,85,9.8a1.39,1.39,0,0,1,.53.15l.7.32.75.36a3.87,3.87,0,0,0,.58.22,13.22,13.22,0,0,1,1.86.5,4.88,4.88,0,0,1,1.45.78,3.2,3.2,0,0,1,1,1.25,4.67,4.67,0,0,1,.35,1.92,7.17,7.17,0,0,1-.13,1.45A9.3,9.3,0,0,0,92,18.4a.56.56,0,0,0,.28.55,3.52,3.52,0,0,0,.65.25,4.76,4.76,0,0,1,.67.23.5.5,0,0,1,.3.52,1.49,1.49,0,0,1-.23.48c-.15.25-.24.4-.27.47a5.48,5.48,0,0,0-.25,1.28c-.07.58-.12,1.21-.15,1.9s-.06,1.38-.08,2.1,0,1.35,0,1.92v1.73c0,.71,0,1.3.05,1.77h.2l.2,0,.15,0a3.72,3.72,0,0,1,1.22.28C95.19,32,95.45,32.28,95.45,32.65ZM89.1,17.2A10.08,10.08,0,0,0,89,16a6.09,6.09,0,0,0-.35-1.32,2.74,2.74,0,0,0-.74-1.05,1.67,1.67,0,0,0-1.18-.43,2.64,2.64,0,0,0-1.79.75A6.53,6.53,0,0,0,83.48,16a14.76,14.76,0,0,0-1,3.36,23.15,23.15,0,0,0-.38,4.47c0,.7,0,1.42.07,2.17a17.87,17.87,0,0,0,.25,2,4.47,4.47,0,0,0,.55,1.5,1.13,1.13,0,0,0,1,.6,2.42,2.42,0,0,0,1.85-.9A7.44,7.44,0,0,0,87.12,27a14.77,14.77,0,0,0,.8-2.75,17.62,17.62,0,0,0,.33-2.47,13.69,13.69,0,0,1,.16-2,2.16,2.16,0,0,1,.21-.68,1.94,1.94,0,0,0,.4-.95A7.56,7.56,0,0,0,89.1,17.2Zm-.2,17.35a9.08,9.08,0,0,0-2.2,2.25A18.62,18.62,0,0,0,84.91,40a20.08,20.08,0,0,0-1.18,3.45,13.21,13.21,0,0,0-.43,3.15,6.41,6.41,0,0,0,.1,1.1,4.87,4.87,0,0,0,.33,1.12,2.23,2.23,0,0,0,.65.88,1.61,1.61,0,0,0,1,.35,2.13,2.13,0,0,0,1.74-.87,6.91,6.91,0,0,0,1.06-2.08,12.11,12.11,0,0,0,.5-2.45,19.28,19.28,0,0,0,.13-2v-.45c0-.2,0-.58,0-1.15s0-1.36,0-2.37Z"/><path class="cls-6" d="M110.4,24.3a14.79,14.79,0,0,1-.23,1.68,13.84,13.84,0,0,1-.8,2.79,9.09,9.09,0,0,1-1.55,2.63,3.08,3.08,0,0,1-2.47,1.15,3.15,3.15,0,0,1-2.55-1.12,7.7,7.7,0,0,1-1.45-2.7,14.84,14.84,0,0,1-.65-3.3c-.1-1.16-.15-2.11-.15-2.88a23.14,23.14,0,0,1,.15-2.62c.1-.89.16-1.76.2-2.63a.48.48,0,0,0-.4-.5,3,3,0,0,0-.75-.1,1.19,1.19,0,0,0-.75.15.73.73,0,0,0-.2.35l-.2,1.6c-.14,1.07-.28,2.09-.43,3.08s-.31,1.85-.5,2.6A7,7,0,0,1,97,26.27c-.25.46-.54.68-.87.68H96.1a.72.72,0,0,1-.38-.1c-.11-.07-.17-.23-.17-.5a2.6,2.6,0,0,1,.1-.6,23.94,23.94,0,0,0,.5-2.9c.06-.77.11-1.45.15-2.05v-.35c0-.17,0-.37,0-.6s0-.52,0-.85V16.55a10.4,10.4,0,0,0-.1-1.3L96.1,12.3a.76.76,0,0,1,.25-.55A2.19,2.19,0,0,1,97,11.3a3.89,3.89,0,0,1,.85-.3,3.49,3.49,0,0,1,.8-.1c.56,0,.85.37.85,1.1v.25l0,1.1v.3c0,.23,0,.37.15.43a3.47,3.47,0,0,0,.6.17h.15c.26,0,.7.07,1.3.1a15.73,15.73,0,0,1,1.8.2A6,6,0,0,1,105,15a1,1,0,0,1,.68.93,2.84,2.84,0,0,1-.1.57,7.32,7.32,0,0,1-.25.75c-.1.25-.19.48-.25.68a1.46,1.46,0,0,0-.1.4,28.41,28.41,0,0,0-.9,7.2c0,.2,0,.57.05,1.1a14.24,14.24,0,0,0,.2,1.65,6,6,0,0,0,.45,1.5c.2.43.45.65.75.65a1.66,1.66,0,0,0,1.35-.93,10.66,10.66,0,0,0,1-2.14,18.85,18.85,0,0,0,.72-2.48c.19-.83.31-1.45.38-1.85s.17-.59.32-.67a.82.82,0,0,1,.43-.13c.46,0,.7.3.7.9,0,.07,0,.24,0,.53A3.43,3.43,0,0,1,110.4,24.3Z"/><path class="cls-7" d="M128.75,25.9a7.28,7.28,0,0,1-.5,1.65,9.8,9.8,0,0,1-1,1.83,6.33,6.33,0,0,1-1.45,1.47,3,3,0,0,1-1.82.6,3.56,3.56,0,0,1-2.63-1.15A5.38,5.38,0,0,1,120,27.05c-.2.53-.44,1.15-.7,1.85a10,10,0,0,1-1,2,6.79,6.79,0,0,1-1.38,1.53,2.85,2.85,0,0,1-1.82.62,1.64,1.64,0,0,1-.45,0l-.33-.12a1.45,1.45,0,0,0-.4-.13,3.28,3.28,0,0,0-.62-.05,2.88,2.88,0,0,1-2-.77,5.64,5.64,0,0,1-1.32-2,11,11,0,0,1-.73-2.63A17,17,0,0,1,109,24.6a49.2,49.2,0,0,1,.32-5.7,21.8,21.8,0,0,1,1.08-4.77,8.91,8.91,0,0,1,2-3.3,3.89,3.89,0,0,1,2.9-1.23,5.34,5.34,0,0,1,1.52.17,6.7,6.7,0,0,1,1,.41l1,.47a5.41,5.41,0,0,0,1.48.4,3.56,3.56,0,0,1,1.47,1.43,5.08,5.08,0,0,1,.55,1.77,10.72,10.72,0,0,1,.08,2,9.74,9.74,0,0,0,.1,2s.07.08.22.15l.53.23a1.54,1.54,0,0,1,.52.35.78.78,0,0,1,.23.57v.2a8.53,8.53,0,0,0-.6,2.3,23.68,23.68,0,0,0-.1,2.4c0,.47,0,1,.07,1.53a10.32,10.32,0,0,0,.25,1.54,3.29,3.29,0,0,0,.53,1.21,1.08,1.08,0,0,0,.9.47,1.34,1.34,0,0,0,1.07-.6,5.6,5.6,0,0,0,.8-1.37,13.46,13.46,0,0,0,.55-1.58,10.24,10.24,0,0,0,.28-1.2c.06-.4.23-.6.5-.6a.62.62,0,0,1,.47.28,1.54,1.54,0,0,1,.23,1v.38A2.6,2.6,0,0,1,128.75,25.9Zm-9.25-8.1a11.31,11.31,0,0,0-.1-1.3,6.67,6.67,0,0,0-.35-1.4,2.91,2.91,0,0,0-.75-1.1,2,2,0,0,0-1.35-.45,2.67,2.67,0,0,0-2.28,1.28,10.35,10.35,0,0,0-1.37,3,17.5,17.5,0,0,0-.65,3.55c-.1,1.21-.15,2.17-.15,2.87,0,.53,0,1.18.07,1.93a15.3,15.3,0,0,0,.28,2.12,6.05,6.05,0,0,0,.57,1.7,1.11,1.11,0,0,0,1,.7,2.54,2.54,0,0,0,2.22-1.12,8.32,8.32,0,0,0,1.18-2.81,25.21,25.21,0,0,0,.57-3.59l.33-3.53c.06-.57.21-.92.45-1.07s.35-.26.35-.33Z"/><path class="cls-8" d="M144.05,19.05a31.11,31.11,0,0,0-1.3,2.85c-.4,1-.7,1.78-.9,2.35,0,.17-.13.52-.28,1.05l-.5,1.78c-.18.65-.34,1.29-.47,1.92a7.36,7.36,0,0,0-.2,1.55q0,.25-.45.45a2.93,2.93,0,0,1-1.15.2,4.2,4.2,0,0,1-1.75-.3,2,2,0,0,1-1-1,4.88,4.88,0,0,1-.4-1.78c0-.73-.07-1.62-.07-2.65V21.75c0-.27,0-.53,0-.8s-.07-.43-.17-.5-.38.5-.63,1.3a26.64,26.64,0,0,0-.7,2.93c-.22,1.15-.41,2.35-.57,3.62a25.8,25.8,0,0,0-.25,3.4.61.61,0,0,1-.58.65,7.11,7.11,0,0,1-1.27.1,4.78,4.78,0,0,1-.68-.07c-.32-.05-.63-.11-.95-.18a4.94,4.94,0,0,1-.87-.27.85.85,0,0,1-.5-.43,8.2,8.2,0,0,1-.38-2.15q-.12-1.5-.12-4.65c0-1.23,0-2.67.07-4.3s.11-3.55.18-5.75c0-.3,0-.69-.05-1.17s0-.76,0-.83c0-.27.1-.42.32-.47a2.57,2.57,0,0,1,.48-.08,5.48,5.48,0,0,1,.82.08c.32.05.63.1,1,.17a8.61,8.61,0,0,1,.88.23,2.26,2.26,0,0,1,.55.22V24.85c.16-.67.35-1.44.57-2.33s.47-1.75.75-2.62a20.73,20.73,0,0,1,.93-2.4,4.8,4.8,0,0,1,1-1.6,1.71,1.71,0,0,1,.75-.22,6.88,6.88,0,0,1,.9-.08,3.38,3.38,0,0,1,.62.08,3.83,3.83,0,0,1,.73.22,2.91,2.91,0,0,1,.62.37,1,1,0,0,1,.33.53v8.55c0,.2,0,.3.1.3A5,5,0,0,0,140,24.3c.31-.9.68-2,1.12-3.2s.89-2.5,1.39-3.8a31.67,31.67,0,0,1,1.34-3.1c.07-.13.29-.21.67-.22l1,0a2.62,2.62,0,0,1,.94.23,5.45,5.45,0,0,1,2.17,1.52,1.61,1.61,0,0,1,.43,1.05,2,2,0,0,1-.3.58,2.7,2.7,0,0,0-.4,1,17.06,17.06,0,0,0-.48,2.75q-.12,1.35-.12,3.45c0,.6,0,1.2.07,1.8a10.55,10.55,0,0,0,.25,1.63,3.75,3.75,0,0,0,.48,1.17.91.91,0,0,0,.8.45,1.91,1.91,0,0,0,1.25-.47,4.31,4.31,0,0,0,1-1.28,11.13,11.13,0,0,0,.7-1.87c.2-.72.36-1.46.5-2.23s.46-1.2.9-1.2a.58.58,0,0,1,.52.2,2,2,0,0,1,.13.9,2.14,2.14,0,0,1-.05.55,13.34,13.34,0,0,1-.43,2,15.79,15.79,0,0,1-1,2.75,9.62,9.62,0,0,1-1.67,2.4,3.15,3.15,0,0,1-2.3,1,4.17,4.17,0,0,1-2.53-.72,4.91,4.91,0,0,1-1.54-1.95,10.72,10.72,0,0,1-.76-2.83,24.07,24.07,0,0,1-.22-3.35v-.35Z"/></g></g></svg>